<svg width="50" height="50" viewBox="0 0 50 50" fill="none" xmlns="http://www.w3.org/2000/svg">
<path d="M40.9999 14.3335C38.877 13.2178 36.4014 12.9784 34.1041 13.6668C33.9922 11.3303 32.9853 9.12649 31.2922 7.51246C29.599 5.89843 27.3496 4.99805 25.0104 4.99805C22.6712 4.99805 20.4217 5.89843 18.7286 7.51246C17.0354 9.12649 16.0285 11.3303 15.9166 13.6668C13.6255 12.9769 11.157 13.1931 9.02078 14.271C7.44764 15.0978 6.15091 16.367 5.29049 17.9221C4.43006 19.4771 4.04358 21.2499 4.1787 23.022C4.31382 24.794 4.96463 26.4878 6.05088 27.8944C7.13712 29.301 8.6113 30.3589 10.2916 30.9377C9.21909 32.4638 8.63765 34.2807 8.62495 36.146C8.6342 36.6698 8.68295 37.1921 8.77078 37.7085C9.12162 39.8242 10.2131 41.7463 11.8502 43.1316C13.4874 44.5169 15.5637 45.2752 17.7083 45.271C18.1522 45.3014 18.5977 45.3014 19.0416 45.271C21.4229 44.8959 23.5622 43.6018 24.9999 41.6668C26.4527 43.5706 28.5899 44.8335 30.9583 45.1877C31.4022 45.2181 31.8477 45.2181 32.2916 45.1877C33.9544 45.1857 35.5848 44.7274 37.005 43.8627C38.4253 42.9979 39.5809 41.7599 40.346 40.2835C41.111 38.8071 41.4561 37.1491 41.3437 35.4901C41.2312 33.8311 40.6655 32.2348 39.7083 30.8752C41.3968 30.3064 42.8808 29.2536 43.9754 27.8478C45.0701 26.442 45.7272 24.7453 45.8649 22.9689C46.0026 21.1925 45.6147 19.4148 44.7497 17.8572C43.8847 16.2995 42.5807 15.0306 40.9999 14.2085V14.3335ZM21.5416 10.2918C22.4723 9.40048 23.7113 8.90291 24.9999 8.90291C26.2886 8.90291 27.5276 9.40048 28.4583 10.2918C29.1689 11.0035 29.6514 11.9106 29.8443 12.8976C30.0373 13.8846 29.9319 14.9067 29.5416 15.8335L28.9999 17.0627L27.6249 18.271C26.7796 17.9808 25.8936 17.8261 24.9999 17.8127C23.8449 17.8138 22.7027 18.055 21.6458 18.521L20.4791 15.8335C20.0748 14.9107 19.9599 13.887 20.1496 12.8976C20.3393 11.9082 20.8247 10.9996 21.5416 10.2918V10.2918ZM8.83328 24.5418C8.36819 23.5184 8.26625 22.367 8.5443 21.2778C8.82235 20.1886 9.46374 19.2268 10.3625 18.5516C11.2612 17.8763 12.3634 17.528 13.487 17.5641C14.6105 17.6002 15.6881 18.0186 16.5416 18.7502L17.5624 19.646L18.2916 21.3127C17.248 22.709 16.6785 24.4027 16.6666 26.146C16.6419 26.458 16.6419 26.7715 16.6666 27.0835H15.5208L13.7708 27.2502C12.7698 27.3558 11.7605 27.153 10.8781 26.6689C9.99559 26.1849 9.28213 25.4427 8.83328 24.5418V24.5418ZM22.5833 37.2085C22.3325 38.3207 21.7061 39.3124 20.8096 40.0167C19.9131 40.7211 18.8012 41.0949 17.6613 41.0754C16.5214 41.0558 15.423 40.644 14.5512 39.9093C13.6794 39.1746 13.0874 38.1619 12.8749 37.0418C12.855 36.7505 12.855 36.4582 12.8749 36.1668C12.8825 35.32 13.1114 34.49 13.539 33.759C13.9666 33.0281 14.578 32.4217 15.3124 32.0002L16.3749 31.2502L18.2708 31.0418C19.4657 32.7041 21.2307 33.8684 23.2291 34.3127L22.5833 37.2085ZM24.9999 30.3127C24.1759 30.3127 23.3703 30.0683 22.6851 29.6105C21.9999 29.1526 21.4658 28.5019 21.1504 27.7405C20.8351 26.9791 20.7526 26.1414 20.9133 25.3331C21.0741 24.5249 21.4709 23.7824 22.0537 23.1997C22.6364 22.617 23.3788 22.2202 24.1871 22.0594C24.9953 21.8986 25.8331 21.9811 26.5945 22.2965C27.3558 22.6119 28.0066 23.1459 28.4644 23.8311C28.9222 24.5163 29.1666 25.3219 29.1666 26.146C29.1666 27.2511 28.7276 28.3109 27.9462 29.0923C27.1648 29.8737 26.105 30.3127 24.9999 30.3127ZM37.1249 37.021C36.91 38.2922 36.2044 39.4281 35.1601 40.184C34.1158 40.94 32.8163 41.2555 31.5416 41.0627C30.5372 40.9211 29.6 40.4762 28.8553 39.7874C28.1107 39.0986 27.5942 38.1989 27.3749 37.2085L27.0833 35.9585L27.5208 34.0418C29.4427 33.4159 31.0716 32.1128 32.1041 30.3752L33.1458 31.0002H33.3333L34.7083 31.8127C35.6016 32.3228 36.3142 33.0982 36.7472 34.0314C37.1802 34.9646 37.3122 36.0094 37.1249 37.021V37.021ZM41.1666 24.521C40.7569 25.3491 40.1248 26.0468 39.3411 26.5362C38.5574 27.0255 37.653 27.2872 36.7291 27.2918H36.2291L34.8958 27.0835L33.3333 26.2293C33.3304 24.2037 32.5898 22.2485 31.2499 20.7293L32.1458 19.9585L33.4583 18.7502C34.3142 17.9892 35.4081 17.5495 36.5526 17.5063C37.697 17.4631 38.8209 17.819 39.7318 18.5133C40.6427 19.2075 41.2839 20.1968 41.5457 21.3118C41.8074 22.4268 41.6734 23.5981 41.1666 24.6252V24.521Z" fill="#29B73D"/>
</svg>
