<svg width="50" height="50" viewBox="0 0 50 50" fill="none" xmlns="http://www.w3.org/2000/svg">
<path d="M5.18889 23.173C5.16492 22.8969 5.1986 22.6187 5.28781 22.3563C5.37702 22.0939 5.51981 21.8528 5.70712 21.6485C5.89442 21.4442 6.12215 21.281 6.37586 21.1694C6.62957 21.0578 6.90371 21.0001 7.18089 21H10.9999C11.5303 21 12.039 21.2107 12.4141 21.5858C12.7892 21.9609 12.9999 22.4696 12.9999 23V42C12.9999 42.5304 12.7892 43.0391 12.4141 43.4142C12.039 43.7893 11.5303 44 10.9999 44H8.83389C8.33332 44.0001 7.8509 43.8125 7.48191 43.4743C7.11292 43.136 6.88419 42.6717 6.84089 42.173L5.18889 23.173V23.173Z" stroke="#29B73D" stroke-width="4" stroke-linecap="round" stroke-linejoin="round"/>
<path d="M19 22.375C19 21.539 19.52 20.791 20.275 20.435C21.924 19.657 24.733 18.094 26 15.981C27.633 13.257 27.941 8.33599 27.991 7.20899C27.998 7.05099 27.994 6.89299 28.015 6.73699C28.286 4.78399 32.055 7.06499 33.5 9.47699C34.285 10.785 34.385 12.504 34.303 13.847C34.214 15.283 33.793 16.67 33.38 18.048L32.5 20.985H43.357C43.666 20.985 43.9708 21.0566 44.2475 21.1941C44.5242 21.3317 44.7653 21.5315 44.9518 21.7779C45.1383 22.0243 45.2651 22.3105 45.3224 22.6142C45.3797 22.9178 45.3659 23.2306 45.282 23.528L39.912 42.544C39.7935 42.9634 39.5412 43.3326 39.1935 43.5954C38.8458 43.8582 38.4218 44.0003 37.986 44H21C20.4696 44 19.9609 43.7893 19.5858 43.4142C19.2107 43.0391 19 42.5304 19 42V22.375Z" stroke="#29B73D" stroke-width="4" stroke-linecap="round" stroke-linejoin="round"/>
</svg>
