<svg width="50" height="50" viewBox="0 0 50 50" fill="none" xmlns="http://www.w3.org/2000/svg">
<path d="M25 28C19.343 28 15.065 23.657 15.065 18L15 8L20 12L25 6L30 12L35 8V18C35 23.657 30.658 28 25 28Z" stroke="#29B73D" stroke-width="4" stroke-miterlimit="10" stroke-linecap="round" stroke-linejoin="round"/>
<path d="M24.4861 44.3142C26.0481 42.7522 24.1491 38.3192 20.2441 34.4142C16.3381 30.5092 11.9061 28.6092 10.3441 30.1722C8.7821 31.7342 10.6811 36.1662 14.5871 40.0722C18.4921 43.9762 22.9241 45.8762 24.4871 44.3142H24.4861Z" stroke="#29B73D" stroke-width="4" stroke-miterlimit="10" stroke-linecap="round" stroke-linejoin="round"/>
<path d="M25.8292 43.9699C27.3912 45.5329 31.8232 43.6329 35.7292 39.7279C39.6342 35.8229 41.5332 31.3899 39.9712 29.8279C38.4092 28.2659 33.9772 30.1659 30.0712 34.0709C26.1662 37.9759 24.2672 42.4079 25.8292 43.9709V43.9699Z" stroke="#29B73D" stroke-width="4" stroke-miterlimit="10" stroke-linecap="round" stroke-linejoin="round"/>
</svg>
