<svg width="50" height="50" viewBox="0 0 50 50" fill="none" xmlns="http://www.w3.org/2000/svg">
<path d="M37.5 4.68737C37.5005 4.37793 37.4092 4.07529 37.2375 3.81782C37.0659 3.56036 36.8216 3.35966 36.5358 3.24117C36.2499 3.12267 35.9353 3.09173 35.6319 3.15225C35.3284 3.21277 35.0498 3.36203 34.8312 3.58112L28.5812 9.83112C28.4362 9.97649 28.3213 10.149 28.243 10.3388C28.1647 10.5287 28.1246 10.732 28.125 10.9374V19.6655L25.8093 21.978C25.3461 21.8551 24.8608 21.8401 24.3909 21.9343C23.921 22.0285 23.479 22.2293 23.0989 22.5212C22.7188 22.8131 22.4108 23.1884 22.1986 23.6182C21.9864 24.0479 21.8757 24.5206 21.875 24.9999C21.8756 25.4445 21.9711 25.8838 22.1551 26.2885C22.3391 26.6933 22.6074 27.0541 22.9419 27.3469C23.2765 27.6397 23.6697 27.8577 24.0952 27.9865C24.5208 28.1152 24.9689 28.1516 25.4097 28.0933C25.8504 28.035 26.2737 27.8834 26.6512 27.6485C27.0286 27.4135 27.3516 27.1008 27.5986 26.7311C27.8455 26.3614 28.0107 25.9432 28.0832 25.5046C28.1556 25.0659 28.1337 24.6168 28.0187 24.1874L30.3343 21.8749H39.0625C39.2678 21.8752 39.4712 21.8351 39.661 21.7568C39.8508 21.6786 40.0233 21.5636 40.1687 21.4186L46.4187 15.1686C46.6378 14.9501 46.7871 14.6714 46.8476 14.368C46.9081 14.0645 46.8772 13.7499 46.7587 13.464C46.6402 13.1782 46.4395 12.934 46.182 12.7623C45.9245 12.5907 45.6219 12.4993 45.3125 12.4999H37.5V4.68737ZM43.575 22.4311C44.1127 26.3223 43.4148 30.284 41.5797 33.7572C39.7446 37.2303 36.8651 40.0394 33.3476 41.7879C29.83 43.5364 25.8522 44.136 21.9756 43.5021C18.0989 42.8681 14.5193 41.0327 11.7419 38.2548C8.9646 35.4769 7.12985 31.8969 6.49667 28.0202C5.86349 24.1434 6.46388 20.1657 8.21307 16.6485C9.96226 13.1313 12.7719 10.2523 16.2454 8.41794C19.7189 6.58354 23.6808 5.88638 27.5718 6.42487L26.375 7.62174C25.9392 8.05697 25.5935 8.57382 25.3575 9.14273C25.1216 9.71164 25.0001 10.3215 25 10.9374C22.2187 10.9374 19.4998 11.7621 17.1873 13.3073C14.8747 14.8525 13.0723 17.0488 12.0079 19.6184C10.9436 22.188 10.6651 25.0155 11.2077 27.7433C11.7503 30.4712 13.0896 32.9769 15.0563 34.9436C17.023 36.9102 19.5287 38.2496 22.2565 38.7922C24.9844 39.3348 27.8119 39.0563 30.3815 37.9919C32.951 36.9276 35.1473 35.1251 36.6925 32.8126C38.2377 30.5 39.0625 27.7812 39.0625 24.9999C40.3053 24.9988 41.4967 24.5042 42.375 23.6249L43.575 22.4311V22.4311ZM25 14.0624C22.8367 14.0624 20.7221 14.7038 18.9234 15.9057C17.1248 17.1075 15.7229 18.8157 14.895 20.8143C14.0672 22.8128 13.8506 25.012 14.2726 27.1337C14.6947 29.2553 15.7364 31.2042 17.266 32.7338C18.7956 34.2635 20.7445 35.3052 22.8662 35.7272C24.9878 36.1492 27.187 35.9326 29.1856 35.1048C31.1841 34.277 32.8923 32.8751 34.0942 31.0764C35.296 29.2778 35.9375 27.1631 35.9375 24.9999H31.6281L31.2375 25.3905C31.1623 26.591 30.7424 27.7444 30.028 28.7121C29.3135 29.6799 28.335 30.4209 27.2099 30.8463C26.0847 31.2717 24.8607 31.3634 23.6847 31.1103C22.5088 30.8572 21.4308 30.2702 20.5803 29.4196C19.7297 28.569 19.1426 27.4911 18.8896 26.3151C18.6365 25.1391 18.7281 23.9151 19.1535 22.79C19.5789 21.6648 20.3199 20.6863 21.2877 19.9719C22.2554 19.2575 23.4088 18.8375 24.6093 18.7624L25 18.3717V14.0624Z" fill="#29B73D"/>
</svg>
