<svg width="50" height="50" viewBox="0 0 50 50" fill="none" xmlns="http://www.w3.org/2000/svg">
<g clip-path="url(#clip0_48_36)">
<path d="M41.9688 14.7496H9.39625C9.00721 14.8248 8.60634 14.8132 8.22234 14.7154C7.83834 14.6176 7.48072 14.4361 7.17509 14.1839C6.86946 13.9317 6.62338 13.615 6.45448 13.2565C6.28558 12.8981 6.19804 12.5067 6.19813 12.1104V12.0594L40.625 10.7183V7.52018C40.6811 7.04302 40.6281 6.55934 40.4699 6.10567C40.3117 5.652 40.0525 5.24021 39.7119 4.90138C39.3712 4.56256 38.9581 4.30556 38.5036 4.1498C38.0491 3.99404 37.5651 3.94358 37.0883 4.00224L6.52062 8.97143C5.48898 9.35226 4.59863 10.0398 3.96926 10.9416C3.33988 11.8433 3.00164 12.9162 3 14.0159L3 42.9656C3 44.0348 3.42472 45.0601 4.18073 45.8161C4.93673 46.5721 5.9621 46.9969 7.03125 46.9969H41.9688C43.0379 46.9969 44.0633 46.5721 44.8193 45.8161C45.5753 45.0601 46 44.0348 46 42.9656V18.7512L46.0027 18.6411C46.0027 17.6075 45.5921 16.6164 44.8613 15.8855C44.1305 15.1547 43.1393 14.7442 42.1058 14.7442L41.9634 14.7469L41.9688 14.7496ZM37.9375 33.5621C36.868 33.5617 35.8424 33.1365 35.0864 32.38C34.3304 31.6235 33.9059 30.5976 33.9062 29.5281C33.9066 28.4586 34.3318 27.433 35.0883 26.677C35.8448 25.921 36.8707 25.4965 37.9402 25.4969C38.4698 25.497 38.9941 25.6015 39.4833 25.8043C39.9725 26.0072 40.4169 26.3044 40.7913 26.6789C41.1656 27.0535 41.4625 27.4982 41.665 27.9875C41.8675 28.4768 41.9716 29.0012 41.9714 29.5308C41.9713 30.0604 41.8668 30.5847 41.664 31.0739C41.4611 31.5631 41.164 32.0076 40.7894 32.3819C40.4148 32.7562 39.9701 33.0531 39.4808 33.2556C38.9915 33.4581 38.4671 33.5622 37.9375 33.5621V33.5621Z" fill="#29B73D"/>
</g>
<defs>
<clipPath id="clip0_48_36">
<rect width="43" height="43" fill="white" transform="translate(3 4)"/>
</clipPath>
</defs>
</svg>
