<svg width="50" height="50" viewBox="0 0 50 50" fill="none" xmlns="http://www.w3.org/2000/svg">
<path d="M31.8541 33.9378L27.0832 38.7295V14.5837C27.0832 14.0311 26.8638 13.5012 26.4731 13.1105C26.0824 12.7198 25.5525 12.5003 24.9999 12.5003C24.4474 12.5003 23.9175 12.7198 23.5268 13.1105C23.1361 13.5012 22.9166 14.0311 22.9166 14.5837V38.7295L18.1458 33.9378C17.7535 33.5455 17.2214 33.3251 16.6666 33.3251C16.1118 33.3251 15.5797 33.5455 15.1874 33.9378C14.7951 34.3301 14.5747 34.8622 14.5747 35.417C14.5747 35.9718 14.7951 36.5039 15.1874 36.8962L23.5207 45.2295C23.7189 45.4192 23.9525 45.5678 24.2082 45.667C24.4576 45.7772 24.7273 45.8341 24.9999 45.8341C25.2726 45.8341 25.5422 45.7772 25.7916 45.667C26.0473 45.5678 26.2809 45.4192 26.4791 45.2295L34.8124 36.8962C35.2047 36.5039 35.4251 35.9718 35.4251 35.417C35.4251 34.8622 35.2047 34.3301 34.8124 33.9378C34.6182 33.7436 34.3876 33.5895 34.1338 33.4844C33.88 33.3792 33.608 33.3251 33.3332 33.3251C32.7785 33.3251 32.2464 33.5455 31.8541 33.9378V33.9378ZM39.5832 4.16699H10.4166C9.86405 4.16699 9.33415 4.38649 8.94345 4.77719C8.55275 5.16789 8.33325 5.69779 8.33325 6.25033C8.33325 6.80286 8.55275 7.33276 8.94345 7.72346C9.33415 8.11417 9.86405 8.33366 10.4166 8.33366H39.5832C40.1358 8.33366 40.6657 8.11417 41.0564 7.72346C41.4471 7.33276 41.6666 6.80286 41.6666 6.25033C41.6666 5.69779 41.4471 5.16789 41.0564 4.77719C40.6657 4.38649 40.1358 4.16699 39.5832 4.16699V4.16699Z" fill="#29B73D"/>
</svg>
